HIERARCHY
ROOT Hips
{
  OFFSET 1.44925e-005 102.336 -0.101585
  CHANNELS 6 Xposition Yposition Zposition Zrotation Xrotation Yrotation
  JOINT LeftUpLeg
  {
    OFFSET 8.9458 -8.66707 0.101652
    CHANNELS 3 Zrotation Xrotation Yrotation
    JOINT LeftLeg
    {
      OFFSET 0 -44.4227 1.3727
      CHANNELS 3 Zrotation Xrotation Yrotation
      JOINT LeftFoot
      {
        OFFSET -0.253549 -42.0924 -1.46059
        CHANNELS 3 Zrotation Xrotation Yrotation
        JOINT LeftToes
        {
          OFFSET -0.04 -4.41509 8.4991
          CHANNELS 3 Zrotation Xrotation Yrotation
          End Site
          {
            OFFSET 0.08 -0.047448 9.77979
          }
        }
      }
    }
  }
  JOINT Spine
  {
    OFFSET 0 11.8905 0
    CHANNELS 3 Zrotation Xrotation Yrotation
    JOINT Spine1
    {
      OFFSET 0 25.6574 0.127663
      CHANNELS 3 Zrotation Xrotation Yrotation
      JOINT RightShoulder
      {
        OFFSET -8.99 -0.362252 -0.22
        CHANNELS 3 Zrotation Xrotation Yrotation
        JOINT RightArm
        {
          OFFSET -10.2827 -0.00338 0.322123
          CHANNELS 3 Zrotation Xrotation Yrotation
          JOINT RightForeArm
          {
            OFFSET -26.364 0.099144 -1.42434
            CHANNELS 3 Zrotation Xrotation Yrotation
            JOINT RightHand
            {
              OFFSET -22.0324 0.085362 1.02216
              CHANNELS 3 Zrotation Xrotation Yrotation
              End Site
              {
                OFFSET -13.3284 -0.6 1.50291
              }
            }
          }
        }
      }
      JOINT LeftShoulder1
      {
        OFFSET 8.99 -0.362252 -0.22
        CHANNELS 3 Zrotation Xrotation Yrotation
        JOINT LeftArm
        {
          OFFSET 10.2827 -0.00337999 0.322123
          CHANNELS 3 Zrotation Xrotation Yrotation
          JOINT LeftForeArm
          {
            OFFSET 26.2597 0.099144 -1.42434
            CHANNELS 3 Zrotation Xrotation Yrotation
            JOINT LeftHand
            {
              OFFSET 22.0902 0.085362 1.02216
              CHANNELS 3 Zrotation Xrotation Yrotation
              End Site
              {
                OFFSET 13.419 -0.6 1.50291
              }
            }
          }
        }
      }
      JOINT Head
      {
        OFFSET 0 8.73416 0.011341
        CHANNELS 3 Zrotation Xrotation Yrotation
        End Site
        {
          OFFSET -0.29 12.7742 2.51395
        }
      }
    }
  }
  JOINT RightUpLeg
  {
    OFFSET -8.9458 -8.66707 0.101652
    CHANNELS 3 Zrotation Xrotation Yrotation
    JOINT RightLeg
    {
      OFFSET 0 -44.4227 1.3727
      CHANNELS 3 Zrotation Xrotation Yrotation
      JOINT RightFoot
      {
        OFFSET 0.253549 -42.0924 -1.46059
        CHANNELS 3 Zrotation Xrotation Yrotation
        JOINT RightToes
        {
          OFFSET 0.04 -4.41509 8.4991
          CHANNELS 3 Zrotation Xrotation Yrotation
          End Site
          {
            OFFSET -0.08 -0.137448 9.77979
          }
        }
      }
    }
  }
}
MOTION
Frames:	7
Frame Time:	0.0333333
74.2001 99.9953 -3.18697 -2.03106 -0.315624 -96.5984 1.52951 -13.1837 -1.96768 1.54513 48.1081 21.5671 -8.74329 -16.8027 -0.625964 -1.36218e-009 8.75216e-006 -1.47296e-008 7.73623 12.6396 -1.23516 -4.01114 -3.1031 0.688848 35.348 1.7637 0.243685 36.4038 -23.6011 -1.62995 9.94079 34.6114 5.28025 -5.8609 9.8336 -4.27196 -45.6748 3.71597 -3.57755 -22.5832 -22.0251 14.2917 -2.55958 32.0716 -16.6266 5.82328 9.61819 -0.917488 0.937907 -12.5978 1.45036 -0.288679 1.62254 -6.48408 1.06648 19.7488 -11.8734 6.77288 -23.4762 0.689363 0.0462048 0.000530889 0.662642 
75.0259 100.314 -3.03883 -1.83024 -0.349226 -96.4108 1.31105 -8.6207 -2.06335 1.33688 41.1792 21.0573 -10.5434 -16.4558 -0.744987 -1.36218e-009 8.75216e-006 -1.47296e-008 7.01396 12.008 -1.23403 -3.7712 -2.7546 0.526667 35.4508 1.76309 0.240312 36.7751 -24.1354 -1.33508 9.71519 33.8163 5.65659 -6.44767 9.83311 -4.27217 -45.3856 3.67362 -3.54006 -22.8217 -20.4822 13.2015 -2.22501 32.0711 -17.2052 5.82328 9.61819 -0.917488 1.367 -12.5187 1.56575 -0.194353 1.34895 -6.14158 1.0898 18.6314 -12.4618 6.23542 -22.3045 0.552179 0.0462048 0.000530889 0.662642 
75.6876 100.623 -2.81612 -1.71128 -0.0544168 -96.4253 1.51758 -3.46447 -1.38397 1.16264 31.782 21.1665 -11.7635 -17.1332 -0.907564 -1.36218e-009 8.75216e-006 -1.47296e-008 6.94085 11.3782 -1.16267 -4.11892 -2.34811 0.53336 35.6308 1.76286 0.231833 37.1901 -22.5305 -1.10795 9.3709 32.022 7.01902 -6.36851 9.83412 -4.23712 -45.0646 3.63833 -3.52039 -23.1654 -18.8941 12.2079 -1.49138 31.229 -18.4922 5.82328 9.61819 -0.917488 1.77766 -12.6146 1.42905 0.179111 1.49893 -5.59823 1.12893 17.0925 -13.0079 6.00897 -20.9431 0.456125 0.0462048 0.000530889 0.662642 
76.2224 100.902 -2.50894 -1.56584 0.510435 -96.5194 1.99551 1.29563 0.662705 1.21305 22.0217 21.1025 -10.7078 -18.669 -0.956286 -1.36218e-009 8.75216e-006 -1.47296e-008 6.99129 10.8412 -1.05181 -4.33737 -2.16264 0.513418 35.7099 1.76297 0.226876 37.5914 -19.3455 -0.661081 9.00187 30.0576 8.68593 -5.74917 9.83522 -4.18979 -45.0986 3.65326 -3.54395 -23.338 -17.6838 11.6221 -0.672496 29.3204 -20.2875 5.82328 9.61819 -0.917488 1.91823 -12.656 1.28389 0.755712 1.94715 -4.88994 1.23645 15.1053 -13.6261 5.76043 -19.6009 0.365012 0.0462048 0.000530889 0.662642 
76.7183 101.212 -2.17124 -1.29138 0.785418 -96.4033 2.12882 4.58905 3.66883 1.23566 14.048 19.5545 -8.18492 -18.9506 -0.731791 -1.36218e-009 8.75216e-006 -1.47296e-008 6.21371 10.3087 -0.950893 -3.88126 -2.1725 0.304052 35.8299 1.76338 0.217799 37.918 -16.65 0.222031 8.68893 29.08 9.80268 -5.37234 9.83348 -4.03626 -45.4173 3.70227 -3.59016 -23.3078 -17.1218 11.0849 -0.253506 27.3945 -21.8298 5.82328 9.61819 -0.917488 1.92265 -12.5996 1.24656 1.02671 2.25246 -4.31203 1.33128 13.1328 -14.3994 5.33368 -18.301 0.264652 0.0462048 0.000530889 0.662642 
77.2725 101.561 -1.86104 -0.86183 0.409261 -95.8144 1.79389 5.99336 4.06666 0.709916 9.12962 18.9468 -6.2411 -17.2305 -0.443466 -1.36218e-009 8.75216e-006 -1.47296e-008 4.38978 9.80374 -0.957719 -2.87203 -2.41984 -0.111145 36.0713 1.76405 0.202578 38.4655 -16.1967 1.35054 8.48146 29.573 10.0162 -5.62413 9.81919 -3.75212 -45.4529 3.71135 -3.60211 -23.5139 -16.7957 10.1048 -0.158597 26.5297 -22.5952 5.82328 9.61819 -0.917488 2.07325 -12.3663 1.18729 0.669552 1.9244 -4.14364 1.33527 11.9472 -15.2914 5.03922 -17.1202 0.190226 0.0462048 0.000530889 0.662642 
77.9288 101.845 -1.54743 -0.407156 -0.246414 -94.7402 1.12751 5.82813 3.51722 0.587024 7.06905 18.2302 -5.55114 -15.1902 -0.294014 -1.36218e-009 8.75216e-006 -1.47296e-008 2.53948 9.62973 -1.13926 -1.98484 -3.02742 -0.594794 36.167 1.76494 0.195774 39.7044 -17.3212 2.27643 8.21387 30.335 10.012 -5.94228 9.80455 -3.50963 -44.9927 3.65065 -3.55482 -24.1474 -15.8563 8.63233 -0.0140501 26.5691 -22.881 5.82328 9.61819 -0.917488 2.29716 -11.9423 0.841113 -0.0252718 1.06183 -4.3465 1.31828 11.7209 -16.2819 5.02038 -16.2788 0.156289 0.0462048 0.000530889 0.662642 
